<?xml version="1.0" encoding="UTF-8"?>
<svg xmlns="http://www.w3.org/2000/svg" xmlns:xlink="http://www.w3.org/1999/xlink" width="3000" height="3000" viewBox="0 0 3000 3000">
<path fill-rule="nonzero" fill="rgb(7.788086%, 22.410583%, 36.497498%)" fill-opacity="1" d="M 2048.371094 1433.070312 C 2057.25 1435.949219 2078.96875 1438.800781 2104.378906 1441.320312 C 2188.949219 1449.75 2271.660156 1410.628906 2317.289062 1338.960938 C 2326.109375 1325.101562 2334.421875 1310.941406 2342.21875 1296.480469 C 2352.839844 1276.769531 2362.769531 1256.191406 2378.550781 1240.320312 C 2394.328125 1224.449219 2417.671875 1213.921875 2439.238281 1219.859375 C 2461.109375 1225.890625 2475.328125 1246.558594 2486.160156 1266.480469 C 2550.269531 1384.289062 2561.519531 1529.609375 2516.308594 1655.878906 C 2471.101562 1782.148438 2370.121094 1887.300781 2245.800781 1937.578125 C 2286.511719 2084.96875 2335.828125 2217.210938 2336.699219 2379.570312 C 2338.230469 2659.199219 2148.148438 2733.570312 2042.519531 2762.878906 C 1735.710938 2847.988281 1409.761719 2814.960938 1094.25 2772.269531 C 999.570312 2759.460938 898.769531 2742.988281 828.390625 2678.371094 C 763.980469 2619.238281 717.898438 2515.828125 710.820312 2428.710938 C 703.921875 2343.839844 722.609375 2105.398438 756.058594 1937.699219 C 626.789062 1890.089844 530.128906 1784.308594 486.78125 1662.449219 C 443.429688 1540.589844 449.308594 1404.871094 485.429688 1280.671875 C 495.511719 1246.050781 513.121094 1207.140625 548.308594 1199.308594 C 578.578125 1192.558594 608.28125 1212.539062 629.789062 1234.890625 C 660.691406 1266.960938 684.628906 1305.03125 707.730469 1343.101562 C 760.828125 1430.671875 857.28125 1403.28125 927.929688 1416.929688 C 1101.328125 1449.03125 1275.421875 1553.730469 1451.609375 1561.5 C 1627.800781 1569.269531 1810.378906 1512.539062 2048.371094 1433.070312 "/>
<path fill-rule="nonzero" fill="rgb(94.921875%, 94.921875%, 94.921875%)" fill-opacity="1" d="M 1068.570312 1569.839844 C 1104.808594 1675.410156 1088.789062 1791.78125 1059.75 1899.539062 C 1030.710938 2007.300781 989.011719 2112.238281 973.980469 2222.851562 C 958.949219 2333.460938 974.550781 2454.839844 1047.71875 2539.109375 C 1102.289062 2601.929688 1182.179688 2636.910156 1262.128906 2659.949219 C 1453.949219 2715.238281 1662.269531 2711.910156 1852.230469 2650.46875 C 1956.359375 2616.808594 2062.710938 2557.949219 2103.929688 2456.578125 C 2127.089844 2399.640625 2126.671875 2335.800781 2118.808594 2274.839844 C 2102.789062 2150.488281 2057.699219 2032.019531 2024.820312 1911.03125 C 1991.941406 1790.039062 1971.300781 1660.828125 2004.75 1539.988281 C 1724.910156 1612.949219 1428.628906 1622.070312 1068.570312 1569.839844 "/>
<path fill-rule="nonzero" fill="rgb(34.910583%, 56.054688%, 62.304688%)" fill-opacity="1" d="M 1657.828125 324 C 1655.25 341.070312 1641.121094 354.871094 1624.859375 360.78125 C 1610.101562 366.089844 1593.929688 365.851562 1578.390625 363.210938 C 1576.828125 362.941406 1575.238281 362.640625 1573.679688 362.339844 C 1556.730469 358.921875 1540.351562 353.128906 1523.460938 349.378906 C 1487.488281 341.429688 1450.171875 343.019531 1394.160156 343.5 C 1377.511719 340.679688 1363.710938 325.679688 1362.300781 308.878906 C 1360.890625 292.050781 1371.960938 274.949219 1387.921875 269.398438 C 1372.5 254.789062 1369.710938 228.75 1381.648438 211.140625 C 1393.589844 193.558594 1418.820312 186.539062 1438.109375 195.449219 C 1440.421875 180.808594 1450.140625 167.820312 1463.011719 160.589844 C 1468.230469 157.621094 1474.050781 155.640625 1480.019531 154.921875 C 1500.75 152.339844 1522.378906 164.851562 1530.539062 184.078125 C 1546.199219 167.101562 1574.671875 163.921875 1593.71875 177.058594 C 1612.710938 190.199219 1619.820312 217.980469 1609.46875 238.621094 C 1621.921875 232.078125 1639.261719 237.960938 1645.171875 250.710938 C 1651.078125 263.429688 1644.421875 280.46875 1631.429688 285.808594 C 1648.53125 287.820312 1660.410156 306.898438 1657.828125 324 "/>
<path fill-rule="nonzero" fill="rgb(25.097656%, 40.405273%, 45.092773%)" fill-opacity="1" d="M 1657.828125 324 C 1655.25 341.070312 1641.121094 354.871094 1624.859375 360.78125 C 1610.101562 366.089844 1593.929688 365.851562 1578.390625 363.210938 C 1553.070312 352.980469 1528.800781 339.210938 1505.070312 325.648438 C 1522.921875 318.03125 1540.289062 307.378906 1550.96875 291.121094 C 1561.621094 274.890625 1564.109375 252.148438 1552.828125 236.308594 C 1541.550781 220.46875 1515.121094 216.539062 1502.460938 231.269531 C 1511.640625 202.441406 1491.511719 168.691406 1462.980469 160.589844 C 1468.199219 157.621094 1474.019531 155.640625 1479.988281 154.921875 C 1500.71875 152.339844 1522.351562 164.851562 1530.511719 184.078125 C 1546.171875 167.101562 1574.640625 163.921875 1593.691406 177.058594 C 1612.679688 190.199219 1619.789062 217.980469 1609.441406 238.621094 C 1621.890625 232.078125 1639.230469 237.960938 1645.140625 250.710938 C 1651.050781 263.429688 1644.390625 280.46875 1631.398438 285.808594 C 1648.53125 287.820312 1660.410156 306.898438 1657.828125 324 "/>
<path fill-rule="nonzero" fill="rgb(98.4375%, 48.193359%, 29.00238%)" fill-opacity="1" d="M 2103.03125 679.800781 C 2098.921875 667.199219 2093.878906 654.988281 2088.121094 643.171875 C 2082.660156 632.011719 2076.539062 621.210938 2069.851562 610.710938 C 2047.621094 575.820312 2019.210938 544.46875 1988.878906 516.148438 C 1967.429688 496.140625 1944.75 477.421875 1921.019531 460.109375 C 1900.140625 444.871094 1878.480469 430.738281 1856.160156 417.78125 C 1751.339844 356.851562 1631.671875 321.421875 1511.308594 319.289062 C 1474.769531 318.660156 1438.109375 321.089844 1401.808594 326.820312 C 1301.339844 342.691406 1204.980469 385.019531 1124.21875 446.910156 C 1111.261719 456.75 1098.691406 467.191406 1086.601562 478.078125 C 1040.789062 519.269531 1001.398438 567.269531 970.890625 620.429688 C 965.609375 629.671875 960.601562 639.058594 955.890625 648.660156 C 945.988281 668.550781 937.351562 689.039062 930.03125 710.160156 C 921.660156 734.398438 914.910156 759.691406 916.019531 785.25 C 917.101562 810.839844 926.910156 837 946.738281 853.199219 C 1009.738281 774.300781 1106.609375 747.628906 1201.171875 734.609375 C 1361.160156 712.589844 1523.398438 723.75 1683.238281 750.300781 C 1737.121094 759.210938 1790.699219 769.890625 1843.828125 781.589844 C 1925.699219 799.648438 2009.398438 821.28125 2076.601562 871.441406 C 2118.539062 818.941406 2124 743.699219 2103.03125 679.800781 Z M 2135.011719 1335.78125 C 2134.199219 1315.289062 2131.199219 1291.171875 2113.230469 1281.269531 C 2105.191406 1276.859375 2095.648438 1276.378906 2086.5 1276.019531 C 2007.570312 1272.78125 1928.609375 1270.078125 1849.648438 1268.160156 C 1533.121094 1260.570312 1216.230469 1266.238281 898.648438 1305.058594 C 888.570312 1339.441406 878.429688 1374.179688 876.328125 1409.910156 C 874.261719 1445.671875 880.859375 1483.078125 901.710938 1512.238281 C 921.300781 1539.601562 951.421875 1557.300781 981.058594 1573.199219 C 1132.320312 1654.320312 1298.128906 1710.839844 1469.070312 1726.019531 C 1541.878906 1732.46875 1615.648438 1731.210938 1688.160156 1721.609375 C 1785.929688 1708.679688 1881.390625 1680.570312 1969.140625 1635.839844 C 2029.53125 1605.03125 2088.808594 1563.359375 2116.351562 1501.441406 C 2139.148438 1450.199219 2137.320312 1391.820312 2135.011719 1335.78125 "/>
<path fill-rule="nonzero" fill="rgb(85.15625%, 44.700623%, 29.00238%)" fill-opacity="1" d="M 2103.03125 679.800781 C 2098.921875 667.199219 2093.878906 654.988281 2088.121094 643.171875 C 2082.660156 632.011719 2076.539062 621.210938 2069.851562 610.710938 C 2047.621094 575.820312 2019.210938 544.46875 1988.878906 516.148438 C 1967.429688 496.140625 1944.75 477.421875 1921.019531 460.109375 C 1900.140625 444.871094 1878.480469 430.738281 1856.160156 417.78125 C 1751.339844 356.851562 1631.671875 321.421875 1511.308594 319.289062 C 1587.601562 417.449219 1639.351562 534.601562 1660.140625 657.210938 C 1665.78125 690.511719 1673.488281 721.46875 1683.238281 750.328125 C 1737.121094 759.238281 1790.699219 769.921875 1843.828125 781.621094 C 1925.699219 799.679688 2009.398438 821.308594 2076.601562 871.46875 C 2118.539062 818.941406 2124 743.699219 2103.03125 679.800781 Z M 2135.011719 1335.78125 C 2134.199219 1315.289062 2131.199219 1291.171875 2113.230469 1281.269531 C 2105.191406 1276.859375 2095.648438 1276.378906 2086.5 1276.019531 C 2007.570312 1272.78125 1928.609375 1270.078125 1849.648438 1268.160156 C 1847.761719 1269.71875 1845.871094 1271.308594 1844.039062 1272.871094 C 1786.53125 1321.769531 1739.96875 1382.070312 1708.828125 1436.640625 C 1753.828125 1525.949219 1743.269531 1638.839844 1688.191406 1721.578125 C 1785.960938 1708.648438 1881.421875 1680.539062 1969.171875 1635.808594 C 2029.558594 1605 2088.839844 1563.328125 2116.378906 1501.410156 C 2139.148438 1450.199219 2137.320312 1391.820312 2135.011719 1335.78125 "/>
<path fill-rule="nonzero" fill="rgb(7.788086%, 22.410583%, 36.497498%)" fill-opacity="1" d="M 2207.460938 1180.558594 C 2214.660156 1150.351562 2205.988281 1118.460938 2192.761719 1090.351562 C 2179.53125 1062.238281 2161.769531 1036.410156 2149.230469 1008 C 2120.460938 942.960938 2119.949219 867.058594 2084.789062 805.261719 C 2051.25 746.308594 1990.5 708.058594 1928.730469 680.070312 C 1814.941406 628.5 1689.121094 603.660156 1564.261719 608.101562 C 1472.851562 603.421875 1375.828125 602.429688 1280.640625 617.851562 C 1185.421875 633.269531 1091.191406 666.121094 1015.890625 726.359375 C 940.589844 786.601562 888.960938 874.378906 876.78125 967.199219 C 870.601562 1014.300781 848.429688 1058.550781 829.949219 1102.320312 C 811.441406 1146.089844 797.910156 1194.628906 808.980469 1240.828125 C 819.238281 1283.671875 849.839844 1319.460938 886.050781 1344.511719 C 922.261719 1369.558594 964.078125 1385.160156 1005.628906 1399.738281 C 1171.621094 1458.058594 1344.78125 1504.980469 1520.851562 1499.011719 C 1669.46875 1508.519531 1820.160156 1484.25 1958.28125 1428.601562 C 2014.738281 1405.828125 2069.789062 1377.449219 2115.148438 1336.859375 C 2160.511719 1296.269531 2192.851562 1241.730469 2207.460938 1180.558594 "/>
<path fill-rule="nonzero" fill="rgb(94.921875%, 94.921875%, 94.921875%)" fill-opacity="1" d="M 1637.519531 1140.089844 C 1632.539062 1056.480469 1635.960938 968.640625 1676.371094 895.261719 C 1716.78125 821.878906 1803.570312 768.328125 1884.421875 790.261719 C 1962.121094 811.351562 2007.601562 889.710938 2044.800781 961.140625 C 2074.558594 1018.289062 2105.101562 1078.621094 2103.359375 1143 C 2101.710938 1204.53125 2069.761719 1262.609375 2025.328125 1305.269531 C 1980.898438 1347.929688 1924.890625 1376.578125 1867.378906 1398.601562 C 1627.769531 1490.339844 1354.050781 1472.160156 1115.730469 1377.148438 C 1071.660156 1359.570312 1028.011719 1339.140625 991.710938 1308.601562 C 955.378906 1278.058594 926.699219 1236.269531 920.039062 1189.320312 C 912.058594 1133.160156 935.640625 1077.871094 958.679688 1026.058594 C 982.5 972.511719 1006.859375 918.058594 1045.5 874.019531 C 1084.140625 829.949219 1139.910156 797.039062 1198.410156 800.128906 C 1271.550781 804 1332.300781 863.519531 1359.960938 931.320312 C 1387.621094 999.148438 1388.699219 1074.421875 1389.210938 1147.679688 C 1463.101562 1144.921875 1536.988281 1142.191406 1637.519531 1140.089844 "/>
<path fill-rule="nonzero" fill="rgb(97.264099%, 67.771912%, 16.893005%)" fill-opacity="1" d="M 1719.480469 1136.429688 C 1666.199219 1129.171875 1603.828125 1112.011719 1553.160156 1081.679688 C 1534.53125 1070.519531 1511.640625 1069.140625 1491.839844 1077.929688 C 1439.128906 1101.328125 1390.859375 1119.78125 1329.179688 1132.738281 C 1331.398438 1134.179688 1333.589844 1135.648438 1335.808594 1137.058594 C 1394.699219 1175.398438 1456.109375 1209.988281 1519.109375 1245.03125 C 1592.761719 1217.519531 1663.050781 1181.039062 1720.230469 1136.519531 C 1719.960938 1136.488281 1719.71875 1136.460938 1719.480469 1136.429688 Z M 2060.550781 2774.488281 C 2054.191406 2759.191406 2041.019531 2747.789062 2027.191406 2738.730469 C 1970.191406 2701.410156 1898.070312 2696.011719 1830.089844 2700.449219 C 1799.878906 2702.398438 1769.429688 2706.179688 1741.078125 2716.890625 C 1712.730469 2727.539062 1686.421875 2745.75 1670.578125 2771.519531 C 1661.910156 2785.589844 1657.050781 2805.058594 1667.519531 2817.808594 C 1677.78125 2830.320312 1697.28125 2829.660156 1712.550781 2824.410156 C 1727.878906 2819.191406 1742.460938 2810.398438 1758.660156 2810.160156 C 1779.089844 2809.890625 1796.789062 2823.121094 1814.429688 2833.378906 C 1832.101562 2843.640625 1855.078125 2851.140625 1872.148438 2839.921875 C 1902.808594 2819.730469 1934.699219 2799.421875 1967.851562 2808.628906 C 1982.070312 2812.621094 1995.089844 2820.210938 2009.28125 2824.5 C 2023.410156 2828.761719 2040.121094 2829.179688 2051.671875 2819.96875 C 2064.628906 2809.558594 2066.910156 2789.730469 2060.550781 2774.488281 Z M 1344.421875 2771.488281 C 1328.550781 2745.71875 1302.238281 2727.539062 1273.921875 2716.859375 C 1245.570312 2706.179688 1215.121094 2702.398438 1184.878906 2700.421875 C 1116.898438 2695.980469 1044.78125 2701.378906 987.808594 2738.699219 C 973.949219 2747.761719 960.808594 2759.191406 954.449219 2774.460938 C 948.121094 2789.730469 950.339844 2809.53125 963.269531 2819.878906 C 974.851562 2829.089844 991.53125 2828.671875 1005.691406 2824.410156 C 1019.820312 2820.121094 1032.839844 2812.53125 1047.121094 2808.539062 C 1080.269531 2799.328125 1112.128906 2819.671875 1142.789062 2839.828125 C 1159.859375 2851.078125 1182.871094 2843.578125 1200.511719 2833.289062 C 1218.179688 2823.03125 1235.878906 2809.800781 1256.308594 2810.070312 C 1272.480469 2810.308594 1287.089844 2819.101562 1302.390625 2824.320312 C 1317.691406 2829.570312 1337.160156 2830.230469 1347.421875 2817.71875 C 1357.949219 2805.03125 1353.058594 2785.558594 1344.421875 2771.488281 "/>
<path fill-rule="nonzero" fill="rgb(98.4375%, 48.193359%, 29.00238%)" fill-opacity="1" d="M 1720.199219 1136.519531 C 1663.050781 1181.039062 1592.730469 1217.519531 1519.078125 1245.03125 C 1456.078125 1209.988281 1394.671875 1175.398438 1335.78125 1137.058594 C 1393.171875 1154.128906 1458.929688 1173.78125 1515.390625 1192.558594 C 1554.808594 1192.558594 1648.710938 1164.121094 1719.449219 1136.429688 C 1719.71875 1136.460938 1719.960938 1136.488281 1720.199219 1136.519531 "/>
<path fill-rule="nonzero" fill="rgb(7.788086%, 22.410583%, 36.497498%)" fill-opacity="1" d="M 1913.699219 1051.859375 C 1910.488281 1048.230469 1911.238281 1042.859375 1909.921875 1038.421875 C 1908.660156 1031.96875 1906.351562 1025.789062 1904.101562 1019.640625 C 1900.589844 1011.390625 1894.378906 997.769531 1884.089844 989.671875 C 1875.691406 982.171875 1856.519531 973.589844 1842.359375 974.699219 C 1816.261719 976.171875 1795.738281 991.648438 1787.28125 1017.179688 C 1785.78125 1021.890625 1784.460938 1026.691406 1783.261719 1031.488281 C 1782.511719 1034.609375 1781.730469 1037.820312 1779.328125 1040.101562 C 1774.078125 1045.46875 1764.449219 1044.300781 1760.789062 1037.699219 C 1759.171875 1034.941406 1758.75 1031.519531 1759.648438 1028.429688 C 1758.71875 1035.328125 1760.070312 1024.441406 1761.179688 1021.800781 C 1763.398438 1012.949219 1766.339844 1004.339844 1770.480469 996.179688 C 1783.46875 969.601562 1810.199219 953.039062 1839.449219 950.910156 C 1864.078125 949.441406 1888.949219 960.121094 1906.230469 977.460938 C 1921.828125 995.160156 1931.25 1018.140625 1934.789062 1041.328125 C 1938.328125 1053.808594 1921.261719 1062.390625 1913.699219 1051.859375 Z M 1122.511719 1051.859375 C 1125.71875 1048.230469 1124.96875 1042.859375 1126.289062 1038.421875 C 1127.550781 1031.96875 1129.859375 1025.789062 1132.109375 1019.640625 C 1135.621094 1011.390625 1141.828125 997.769531 1152.121094 989.671875 C 1160.519531 982.171875 1179.691406 973.589844 1193.851562 974.699219 C 1219.949219 976.171875 1240.46875 991.648438 1248.929688 1017.179688 C 1250.429688 1021.890625 1251.75 1026.691406 1252.949219 1031.488281 C 1253.699219 1034.609375 1254.480469 1037.820312 1256.878906 1040.101562 C 1262.128906 1045.46875 1271.761719 1044.300781 1275.421875 1037.699219 C 1277.039062 1034.941406 1277.460938 1031.519531 1276.558594 1028.429688 C 1277.488281 1035.328125 1276.140625 1024.441406 1275.03125 1021.800781 C 1272.808594 1012.949219 1269.871094 1004.339844 1265.730469 996.179688 C 1252.738281 969.601562 1226.011719 953.039062 1196.761719 950.910156 C 1172.128906 949.441406 1147.261719 960.121094 1129.980469 977.460938 C 1114.378906 995.160156 1104.960938 1018.140625 1101.421875 1041.328125 C 1097.878906 1053.808594 1114.949219 1062.390625 1122.511719 1051.859375 "/>
<path fill-rule="nonzero" fill="rgb(96.09375%, 65.818787%, 53.709412%)" fill-opacity="1" d="M 1811.160156 1167.210938 C 1811.160156 1150.199219 1838.941406 1136.429688 1873.199219 1136.429688 C 1907.460938 1136.429688 1935.238281 1150.199219 1935.238281 1167.210938 C 1935.238281 1184.21875 1907.460938 1197.988281 1873.199219 1197.988281 C 1838.941406 1197.988281 1811.160156 1184.21875 1811.160156 1167.210938 Z M 1152.210938 1197.988281 C 1186.46875 1197.988281 1214.25 1184.21875 1214.25 1167.210938 C 1214.25 1150.199219 1186.46875 1136.429688 1152.210938 1136.429688 C 1117.949219 1136.429688 1090.171875 1150.199219 1090.171875 1167.210938 C 1090.171875 1184.21875 1117.949219 1197.988281 1152.210938 1197.988281 "/>
<path fill-rule="nonzero" fill="rgb(94.921875%, 94.921875%, 94.921875%)" fill-opacity="1" d="M 1666.46875 1593.691406 C 1666.46875 1562.820312 1691.488281 1537.800781 1722.359375 1537.800781 C 1753.230469 1537.800781 1778.25 1562.820312 1778.25 1593.691406 C 1778.25 1624.558594 1753.230469 1649.578125 1722.359375 1649.578125 C 1691.488281 1649.578125 1666.46875 1624.53125 1666.46875 1593.691406 Z M 1908.988281 1571.699219 C 1933.800781 1571.699219 1953.898438 1551.601562 1953.898438 1526.789062 C 1953.898438 1501.980469 1933.800781 1481.878906 1908.988281 1481.878906 C 1884.179688 1481.878906 1864.078125 1501.980469 1864.078125 1526.789062 C 1864.078125 1551.601562 1884.179688 1571.699219 1908.988281 1571.699219 Z M 2036.21875 1495.320312 C 2054.128906 1495.320312 2068.679688 1480.800781 2068.679688 1462.859375 C 2068.679688 1444.949219 2054.160156 1430.398438 2036.21875 1430.398438 C 2018.308594 1430.398438 2003.761719 1444.921875 2003.761719 1462.859375 C 2003.761719 1480.769531 2018.308594 1495.320312 2036.21875 1495.320312 Z M 1389.511719 1593.691406 C 1389.511719 1562.820312 1364.488281 1537.800781 1333.621094 1537.800781 C 1302.75 1537.800781 1277.730469 1562.820312 1277.730469 1593.691406 C 1277.730469 1624.558594 1302.75 1649.578125 1333.621094 1649.578125 C 1364.488281 1649.578125 1389.511719 1624.53125 1389.511719 1593.691406 Z M 1191.929688 1526.789062 C 1191.929688 1501.980469 1171.828125 1481.878906 1147.019531 1481.878906 C 1122.210938 1481.878906 1102.109375 1501.980469 1102.109375 1526.789062 C 1102.109375 1551.601562 1122.210938 1571.699219 1147.019531 1571.699219 C 1171.828125 1571.699219 1191.929688 1551.601562 1191.929688 1526.789062 Z M 1052.21875 1462.859375 C 1052.21875 1444.949219 1037.699219 1430.398438 1019.761719 1430.398438 C 1001.820312 1430.398438 987.300781 1444.921875 987.300781 1462.859375 C 987.300781 1480.769531 1001.820312 1495.320312 1019.761719 1495.320312 C 1037.699219 1495.320312 1052.21875 1480.769531 1052.21875 1462.859375 Z M 2069.820312 610.738281 C 2062.140625 607.261719 2054.429688 603.78125 2046.78125 600.359375 C 2001.691406 580.410156 1956.660156 560.011719 1910.039062 543.78125 C 1749.839844 488.550781 1577.371094 478.5 1409.398438 491.609375 C 1345.980469 497.011719 1282.441406 503.941406 1220.699219 519.871094 C 1167.78125 533.21875 1116.898438 553.5 1066.441406 574.109375 C 1039.648438 585.421875 1013.21875 597.601562 987.480469 611.128906 C 981.898438 614.191406 976.351562 617.308594 970.890625 620.519531 C 965.609375 629.761719 960.601562 639.148438 955.890625 648.75 C 1004.191406 621.179688 1049.101562 601.859375 1100.371094 583.050781 C 1146.871094 565.980469 1193.550781 548.910156 1241.941406 538.140625 C 1301.429688 524.820312 1346.820312 520.46875 1407.960938 515.070312 C 1498.050781 507.898438 1588.710938 507.960938 1678.648438 517.441406 C 1747.890625 524.488281 1831.050781 540.871094 1905.75 566.761719 C 1968.660156 588.78125 2026.710938 615.601562 2088.148438 643.289062 C 2082.628906 632.039062 2076.539062 621.210938 2069.820312 610.738281 Z M 1856.160156 417.808594 C 1789.171875 401.308594 1720.441406 391.890625 1651.949219 384.628906 C 1592.910156 379.589844 1533.601562 380.21875 1474.53125 384.269531 C 1423.441406 387.359375 1372.410156 391.949219 1322.011719 400.859375 C 1255.289062 412.589844 1189.441406 428.730469 1124.25 446.941406 C 1111.289062 456.78125 1098.71875 467.21875 1086.628906 478.109375 C 1183.019531 451.019531 1280.101562 425.308594 1379.578125 412.679688 C 1441.140625 406.378906 1533.929688 399.390625 1606.289062 403.261719 C 1657.621094 405.480469 1694.761719 410.820312 1742.730469 418.230469 C 1794.328125 426.210938 1845.71875 436.53125 1895.640625 452.101562 C 1903.558594 454.441406 1912.261719 457.171875 1921.078125 460.140625 C 1900.140625 444.898438 1878.480469 430.769531 1856.160156 417.808594 Z M 1508.699219 1086.808594 C 1464.871094 1100.820312 1421.460938 1116.058594 1378.53125 1132.558594 C 1408.769531 1134.449219 1437.660156 1121.398438 1466.101562 1110.929688 C 1494.539062 1100.488281 1526.609375 1092.511719 1554.601562 1104.179688 C 1551.179688 1101 1547.730469 1097.851562 1544.070312 1094.550781 C 1534.441406 1085.878906 1521 1082.878906 1508.699219 1086.808594 "/>
</svg>
